<svg xmlns="http://www.w3.org/2000/svg" width="100" height="100"><g style="fill:#333;stroke:none"><path style="fill:#333;stroke:none;stroke-width:1px;stroke-linecap:butt;stroke-linejoin:miter;stroke-opacity:1" d="M56.3 85.314c4.033-4.639 35.938-36.41 37.853-37.574 4.337-3.312 8.263-3.015 12.524.395 3.78 3.024 34.382 33.145 38.464 38.597 3.554 5.155-2.46 16.58-12.293 12.69-7.741-5.303-29.862-32.887-32.255-32.717C96.718 66.98 75.4 93.83 68.99 97.807c-9.713 5.116-16.468-7.03-12.69-12.493Z" transform="translate(-12.476 -8.96) scale(.61972)"/><path style="fill:#333;stroke:none;stroke-width:1px;stroke-linecap:butt;stroke-linejoin:miter;stroke-opacity:1" d="M56.519 129.97c4.033-4.638 35.938-36.41 37.853-37.573 4.336-3.312 8.263-3.016 12.524.394 3.78 3.025 34.382 33.146 38.464 38.598 3.554 5.155-2.46 16.58-12.294 12.69-7.74-5.304-29.861-32.887-32.254-32.717-3.875.274-25.192 27.126-31.603 31.101-9.713 5.117-16.467-7.03-12.69-12.493z" transform="translate(-12.476 -8.96) scale(.61972)"/></g><path d="M49.993 93.75a43.75 43.75 0 1 1 0-87.5 43.75 43.75 0 0 1 0 87.5zm0 6.25a50 50 0 1 0 0-100 50 50 0 0 0 0 100z" style="stroke-width:6.25;fill:#333;fill-opacity:1"/></svg>