<svg xmlns="http://www.w3.org/2000/svg" width="100" height="100"><path d="M49.993 93.75a43.75 43.75 0 1 1 0-87.5 43.75 43.75 0 0 1 0 87.5zm0 6.25a50 50 0 1 0 0-100 50 50 0 0 0 0 100z" style="stroke-width:6.25;fill:#333;fill-opacity:1"/><path style="fill:#333;stroke:#333;stroke-width:1px;stroke-linecap:butt;stroke-linejoin:miter;stroke-opacity:1" d="M28.881 45.954h52.52c4.355.57 3.448 7.279 0 7.232h-53.36L44.15 70.18c2.779 2.733-1.584 8.461-5.962 4.539-.354-.318-21.711-23.034-21.711-23.034-.686-.995-1.44-1.956.032-4.018l21.182-22.718c4.35-3.276 8.128 2.314 5.815 5.282z"/></svg>