<svg xmlns="http://www.w3.org/2000/svg" width="100" height="100"><circle style="display:inline;fill:#83c300;fill-opacity:1;stroke-width:.386848" cy="50" cx="50" r="50"/><path style="fill:#fff;fill-opacity:1;stroke:none;stroke-width:.417803px;stroke-linecap:butt;stroke-linejoin:miter;stroke-opacity:1" d="M29.202 30.325c4.198 3.65 6.755 8.3 15.387 9.24 4.034 16.18 2.057 29.242-6.263 39.015-13.601-10.931-27.77-21.585-9.124-48.255ZM34.216 26.97c9.084 7.489 18.833 10.42 30.543-.127-1.482-1.34-2.953-2.68-6.563-4.02 3.313-3.013 3.892-5.973 4.386-8.93-4.263.623-6.196 4.782-8.567 8.276-2.881-.573-5.762-.618-8.643.284-2.666-4.38-5.563-7.668-8.939-8.689.743 2.647.799 4.788 4.428 9.561-3.707.992-5.287 2.302-6.645 3.644zM69.76 30.658c-4.198 3.65-6.755 8.3-15.386 9.24-4.034 16.18-2.057 29.242 6.263 39.015 13.6-10.931 27.77-21.585 9.123-48.255z" transform="translate(.519 3.661)"/></svg>