<svg xmlns="http://www.w3.org/2000/svg" width="100" height="100"><defs><filter style="color-interpolation-filters:sRGB" id="a" x="-.005" width="1.01" y="-.005" height="1.01"><feGaussianBlur stdDeviation=".2"/></filter></defs><circle style="display:inline;opacity:.993;fill:#096dc4;fill-opacity:1;stroke-width:.386848;filter:url(#a)" cy="50" cx="50" r="50"/><path style="fill:#fff;stroke:none;stroke-width:1px;stroke-linecap:butt;stroke-linejoin:miter;stroke-opacity:1" d="M.825 72.108c10.605-5.327 22.06-8.884 35.445-8.43-10.569 20.138-3.649 34.344 8.787 46.68-21.888-4.453-37.89-15.743-44.232-38.25Z" transform="matrix(.54884 0 0 .54884 23.128 19.26)"/><path style="fill:#fff;stroke:none;stroke-width:1px;stroke-linecap:butt;stroke-linejoin:miter;stroke-opacity:1" d="M0 58.215c8.477-42.66 23.427-32.74 35.561-45.689C43.186 8.498 47.823 1.404 52.278-5.879c1.487 4.906 3.084 9.75-.198 17.333C88.984 5.78 135.44 77.47 64.646 108.346c-12.037-2.071-19.45-8.389-22.992-18.264C68.491 89.4 86.481 56.179 55.92 37.56 35.674 52.953 53.517 50.455 0 58.215Z" transform="matrix(.54884 0 0 .54884 23.128 19.26)"/><path style="fill:#096dc4;fill-opacity:1;stroke:none;stroke-width:1px;stroke-linecap:butt;stroke-linejoin:miter;stroke-opacity:1" d="M15.452 45.25c5.008.551 9.417-1.833 13.34-6.604 1.856-2.395 1.334-4.829 1.328-7.254-12.45-.83-12.493 7.234-14.668 13.858z" transform="matrix(.54884 0 0 .54884 23.128 19.26)"/></svg>