<svg xmlns="http://www.w3.org/2000/svg" width="100" height="100"><defs><filter style="color-interpolation-filters:sRGB" id="c" x="-.005" width="1.01" y="-.005" height="1.01"><feGaussianBlur stdDeviation=".096"/></filter><filter style="color-interpolation-filters:sRGB" id="b" x="-.005" width="1.01" y="-.005" height="1.01"><feGaussianBlur stdDeviation=".254"/></filter><filter style="color-interpolation-filters:sRGB" id="a" x="-.005" width="1.01" y="-.005" height="1.01"><feGaussianBlur stdDeviation=".2"/></filter></defs><circle style="display:inline;opacity:.993;fill:#ec8fe6;fill-opacity:1;stroke-width:.386848;filter:url(#a)" cy="50" cx="50" r="50"/><path style="fill:#fff;stroke:none;stroke-width:1px;stroke-linecap:butt;stroke-linejoin:miter;stroke-opacity:1;filter:url(#b)" d="m-108.394-49.39 18.496 32.56 14.688-4.12-2.87 14.545 32.187 19.08-31.683 18.544 3.166 14.798-15.69-3.394-19.301 33.781-16.201-33.23-18.075 4.812 4.657-17.231-34.61-18.302 34.512-18.324-3.38-14.177 15.853 2.963z" transform="matrix(.52163 0 0 .52163 107.254 42.954)"/><path style="fill:#ec8fe6;fill-opacity:.996078;stroke:none;stroke-width:1px;stroke-linecap:butt;stroke-linejoin:miter;stroke-opacity:.996078;filter:url(#c)" d="m-108.22-11.366-9.256 16.38-14.377 6.942 15.054 8.954s6.668 16.848 8.052 16.314c1.383-.533 7.907-15.668 7.907-15.668l16.694-8.601-16.243-9.917z" transform="matrix(.52163 0 0 .52163 106.335 43.253)"/></svg>