<svg xmlns="http://www.w3.org/2000/svg" width="100" height="100"><circle style="fill:#333;stroke-width:1.11601;stroke-opacity:.996078" cx="50" cy="50" r="50"/><path style="fill:#fff;stroke:none;stroke-width:1px;stroke-linecap:butt;stroke-linejoin:miter;stroke-opacity:1" d="M23.436 44.359c-7.189-27.256 8.972-14.003 12.258-2.763-5.11-15.017 10.221-30.766 10.508-.284 38.676 6.998 47.855 17.683 8.922 34.381C38.7 87.347 3.276 85.377 23.436 44.36Z"/><path style="fill:#fff;stroke:none;stroke-width:1px;stroke-linecap:butt;stroke-linejoin:miter;stroke-opacity:1;fill-opacity:1" d="M63.29 41.52c-2.715 1.298-4.684-.6-1.855-13.607.737-4.125 1.562-11.574 4.907-8.241 1.428 4.821-.34 17.692-3.051 21.848z"/><path style="fill:#fff;stroke:none;stroke-width:1.06756px;stroke-linecap:butt;stroke-linejoin:miter;stroke-opacity:1;fill-opacity:1" d="M70.207 43.975c-3.213.367-4.553-2.213 2.86-14.286 2.189-3.884 5.626-11.07 7.864-6.576-.23 5.327-6.518 17.627-10.724 20.862z"/></svg>