<svg xmlns="http://www.w3.org/2000/svg" width="100" height="100"><defs><filter style="color-interpolation-filters:sRGB" id="a" x="-.005" width="1.01" y="-.005" height="1.01"><feGaussianBlur stdDeviation=".2"/></filter></defs><circle style="display:inline;opacity:.993;fill:#ce4069;fill-opacity:1;stroke-width:.386848;filter:url(#a)" cy="50" cx="50" r="50"/><g style="fill:#fff;fill-opacity:1;stroke:none"><path style="fill:#fff;fill-opacity:1;stroke:none;stroke-width:1px;stroke-linecap:butt;stroke-linejoin:miter;stroke-opacity:1" d="M-89.655-47.405c.343 25.539-1.363 71.628 2.523 75.723 4.834 5.092 74.39 4.366 79.125 1.024 4.736-3.343.987-52.38 1.481-78.57-5.49-6.887-15.331-5.464-17.398.213 0 0 1.467 27.361-1.293 27.145-2.76-.217-3.473-27.734-3.473-27.734-4.793-4.911-12.75-5.969-16.571 1.239 0 0 .06 26.1-2.555 26.068-3.632-.043-1.431-26.56-1.431-26.56-1.49-3.346-12.488-8.492-17.108-.69 0 0 .323 27.387-3.099 26.974-3.421-.413-1.984-25.969-1.984-25.969-5.754-6.814-11.731-8.571-18.217 1.137zM-94.846-27.575l1.077 57.235c-13.563 4.713-17.843-18.834-20.416-30.437 3.424-11.054 4.915-17.377 9.078-23.094 2.586-3.551 5.806-5.343 10.26-3.704z" transform="matrix(.49673 0 0 .49673 79.746 55.508)"/></g></svg>