<svg xmlns="http://www.w3.org/2000/svg" width="100" height="100"><defs><filter style="color-interpolation-filters:sRGB" id="a" x="-.005" width="1.01" y="-.005" height="1.01"><feGaussianBlur stdDeviation=".2"/></filter></defs><circle style="display:inline;opacity:.993;fill:#5269ac;fill-opacity:1;stroke-width:.386848;filter:url(#a)" cy="50" cx="50" r="50"/><path style="fill:#fff;fill-opacity:1;stroke:none;stroke-width:.527073px;stroke-linecap:butt;stroke-linejoin:miter;stroke-opacity:1" d="m68.494 69.5 6.669 4.735c-33.084 9.246-51.06-.351-53.285-23.142 1.279-21.976 21.695-37.437 45.088-21.109 7.07 5.76 15.516 18.147 1.528 39.515z"/><path style="fill:#5269ac;fill-opacity:.99607843;stroke:none;stroke-width:.527073px;stroke-linecap:butt;stroke-linejoin:miter;stroke-opacity:1" d="M36.018 39.507c.034 4.076 2.563 7.635 8.5 7.831-2.291 3.872-5.71 5.378-9.49 3.385-3.854-3.066-2.768-9.073.99-11.216zM62.689 39.64c-.034 4.075-2.564 7.634-8.5 7.83 2.29 3.872 5.71 5.379 9.489 3.385 3.855-3.066 2.769-9.072-.99-11.215z"/></svg>