<svg xmlns="http://www.w3.org/2000/svg" width="100" height="100"><defs><filter style="color-interpolation-filters:sRGB" id="a" x="-.005" width="1.01" y="-.005" height="1.01"><feGaussianBlur stdDeviation=".2"/></filter></defs><circle style="display:inline;opacity:.993;fill:#74cec0;fill-opacity:1;stroke-width:.386848;filter:url(#a)" cy="50" cx="50" r="50"/><g style="fill:#fff;fill-opacity:1;stroke:none"><path style="fill:#fff;stroke:none;stroke-width:1px;stroke-linecap:butt;stroke-linejoin:miter;stroke-opacity:1;fill-opacity:1" d="m-73.063 1.892 27.894-14.597.4 31.48-27.178 15.91zM-42.295 23.704-15.42 39.67l-24.302 17.284-29.865-15.245ZM-72.6 46.262l27.187 15.283.538 34.531S-70.92 81.702-71.607 80.475c-.688-1.227-.993-34.213-.993-34.213zM-79.789 2.232l-27.894-14.597-.399 31.48 27.177 15.91zM-110.556 24.044l-26.875 15.966 24.302 17.284 29.865-15.245zM-80.25 46.602l-27.188 15.283-.538 34.531s26.045-14.374 26.732-15.601c.687-1.227.993-34.213.993-34.213z" transform="translate(87.1 29.437) scale(.49631)"/></g></svg>