<svg xmlns="http://www.w3.org/2000/svg" width="100" height="100"><defs><filter style="color-interpolation-filters:sRGB" id="a" x="-.005" width="1.01" y="-.005" height="1.01"><feGaussianBlur stdDeviation=".2"/></filter></defs><circle style="display:inline;opacity:.993;fill:#f97176;fill-opacity:1;stroke-width:.386848;filter:url(#a)" cy="50" cx="50" r="50"/><path style="fill:#fff;stroke:none;stroke-width:.664504px;stroke-linecap:butt;stroke-linejoin:miter;stroke-opacity:1" d="M65.812 78.143C18.856 90.069 3.689 42.199 30.383 21.588 79.905 1.58 92.947 58.476 65.253 69.354 29.73 78.098 32.638 44.819 39.188 40.21c6.87-7.908 28.26-5.829 21.961 12.553-3.287 4.199-11.73 3.97-11.906-1.287 8.371 3.642 12.183-9.082 1.565-10.115-15.545 5.399-5.072 22.873 5.809 20.765 27.475-10.63 3.026-40.697-15.803-31.186C26.756 35.92 10.96 77.387 65.812 78.143Z"/></svg>